<?xml version="1.0" encoding="UTF-8"?> <svg xmlns="http://www.w3.org/2000/svg" width="1320" height="859" viewBox="0 0 1320 859" fill="none"> <g clip-path="url(#clip0_270:1221)"> <rect width="1320" height="859" rx="10" fill="#CBF86D"></rect> <line x1="-460.314" y1="1191.25" x2="342.348" y2="-199.006" stroke="#D8FF87" stroke-width="30"></line> <line x1="366.427" y1="1146.05" x2="1003.45" y2="42.6945" stroke="#D8FF87" stroke-width="30"></line> <line x1="-724.33" y1="940.753" x2="78.3327" y2="-449.5" stroke="#D8FF87" stroke-width="10"></line> <rect x="-255.139" y="614.008" width="602.093" height="288.937" transform="rotate(-60 -255.139 614.008)" fill="#CBF86D" stroke="#D8FF87" stroke-width="30"></rect> <rect x="736.037" y="261.723" width="538.803" height="339.565" transform="rotate(-60 736.037 261.723)" fill="#CBF86D" stroke="#D8FF87" stroke-width="30"></rect> <rect x="464.061" y="1137.4" width="421.754" height="179.255" transform="rotate(-60 464.061 1137.4)" fill="#CBF86D" stroke="#D8FF87" stroke-width="30"></rect> <rect x="920.228" y="775.106" width="113.03" height="65.4406" transform="rotate(-60 920.228 775.106)" fill="#CBF86D" stroke="#D8FF87" stroke-width="30"></rect> <rect x="642.725" y="83.7782" width="113.03" height="65.4406" transform="rotate(-60 642.725 83.7782)" fill="#CBF86D" stroke="#D8FF87" stroke-width="30"></rect> <rect x="302.264" y="579.825" width="221.319" height="96.1411" transform="rotate(-60 302.264 579.825)" fill="#CBF86D" stroke="#D8FF87" stroke-width="30"></rect> <rect x="240.921" y="806.849" width="84.5681" height="46.6258" transform="rotate(-60 240.921 806.849)" fill="#D8FF87" stroke="#D8FF87" stroke-width="30"></rect> <rect x="501.625" y="225.698" width="9.63556" height="9.63556" transform="rotate(-60 501.625 225.698)" fill="#D8FF87" stroke="#D8FF87" stroke-width="9.63556"></rect> <line x1="-554.788" y1="1463.09" x2="82.2331" y2="359.736" stroke="#D8FF87" stroke-width="30"></line> <rect x="863.467" y="591.782" width="66.441" height="18.8422" transform="rotate(-60 863.467 591.782)" fill="#D8FF87" stroke="#D8FF87" stroke-width="18.8422"></rect> <rect x="329.655" y="91.6957" width="66.441" height="18.8422" transform="rotate(-60 329.655 91.6957)" fill="#D8FF87" stroke="#D8FF87" stroke-width="18.8422"></rect> <line x1="155.396" y1="1383.99" x2="958.059" y2="-6.26437" stroke="#D8FF87" stroke-width="10"></line> </g> <defs> <clipPath id="clip0_270:1221"> <rect width="1320" height="859" rx="10" fill="white"></rect> </clipPath> </defs> </svg> 